<svg width="20" height="17" viewBox="0 0 20 17" fill="none" xmlns="http://www.w3.org/2000/svg">
<path fill-rule="evenodd" clip-rule="evenodd" d="M6.42857 0.642853C5.72096 0.642853 5.16776 1.07307 4.8241 1.58855C4.47711 2.10902 4.28571 2.78691 4.28571 3.5C4.28571 4.21308 4.47711 4.89097 4.8241 5.41144C5.16776 5.92692 5.72096 6.35714 6.42857 6.35714C7.13619 6.35714 7.68939 5.92692 8.03304 5.41144C8.38003 4.89097 8.57143 4.21308 8.57143 3.5C8.57143 2.78691 8.38003 2.10902 8.03304 1.58855C7.68939 1.07307 7.13619 0.642853 6.42857 0.642853ZM13.5714 0.642853C12.8638 0.642853 12.3106 1.07307 11.967 1.58855C11.62 2.10902 11.4286 2.78691 11.4286 3.5C11.4286 4.21308 11.62 4.89097 11.967 5.41144C12.3106 5.92692 12.8638 6.35714 13.5714 6.35714C14.279 6.35714 14.8323 5.92692 15.1759 5.41144C15.5229 4.89097 15.7143 4.21308 15.7143 3.5C15.7143 2.78691 15.5229 2.10902 15.1759 1.58855C14.8323 1.07307 14.279 0.642853 13.5714 0.642853ZM2.14286 7.07142C1.43524 7.07142 0.882039 7.50164 0.538383 8.01712C0.191399 8.5376 0 9.21548 0 9.92857C0 10.6417 0.191399 11.3195 0.538383 11.84C0.882039 12.3555 1.43524 12.7857 2.14286 12.7857C2.85047 12.7857 3.40367 12.3555 3.74733 11.84C4.09431 11.3195 4.28571 10.6417 4.28571 9.92857C4.28571 9.21548 4.09431 8.5376 3.74733 8.01712C3.40367 7.50164 2.85047 7.07142 2.14286 7.07142ZM10 7.07142C8.2845 7.07142 7.01606 7.991 6.20377 9.13224C5.40271 10.2577 5 11.6527 5 12.7857C5 14.1059 5.79326 15.0236 6.7655 15.5749C7.72334 16.1181 8.92369 16.3571 10 16.3571C11.0763 16.3571 12.2767 16.1181 13.2345 15.5749C14.2067 15.0236 15 14.1059 15 12.7857C15 11.6527 14.5973 10.2577 13.7962 9.13224C12.9839 7.991 11.7155 7.07142 10 7.07142ZM17.8571 7.07142C17.1496 7.07142 16.5963 7.50164 16.2527 8.01712C15.9057 8.5376 15.7143 9.21548 15.7143 9.92857C15.7143 10.6417 15.9057 11.3195 16.2527 11.84C16.5963 12.3555 17.1496 12.7857 17.8571 12.7857C18.5647 12.7857 19.118 12.3555 19.4616 11.84C19.8086 11.3195 20 10.6417 20 9.92857C20 9.21548 19.8086 8.5376 19.4616 8.01712C19.118 7.50164 18.5647 7.07142 17.8571 7.07142Z" fill="#9282FA"/>
</svg>
